<svg width="89" height="73" viewBox="0 0 89 73" fill="none" xmlns="http://www.w3.org/2000/svg">
<path d="M59.1868 14.1685H56.0112C55.3413 14.1685 54.7159 13.8331 54.3452 13.275L52.4787 10.4647C52.108 9.90664 51.4826 9.57122 50.8126 9.57122H44.5837H38.7474C37.8751 9.57122 37.1033 10.1367 36.8404 10.9685L31.0425 29.3126L30.0381 33.4045C29.9998 33.5606 29.9805 33.7206 29.9805 33.8813V37.0163C29.9805 42.7987 35.1019 47.2405 40.8263 46.4228V46.4228C41.1617 46.3749 41.4781 46.2382 41.7429 46.0269L53.3293 36.7805C53.6836 36.4977 54.1235 36.3437 54.5768 36.3437H59.4523H63.7969C64.2502 36.3437 64.6901 36.4977 65.0444 36.7805L76.6307 46.0269C76.8955 46.2382 77.212 46.3749 77.5474 46.4228V46.4228C83.2717 47.2405 88.3932 42.7987 88.3932 37.0163V33.8813C88.3932 33.7206 88.3738 33.5606 88.3355 33.4045L87.3311 29.3126L81.5332 10.9685C81.2703 10.1367 80.4986 9.57122 79.6262 9.57122H73.79H67.6146C66.9154 9.57122 66.267 9.93633 65.9045 10.5342L64.2845 13.2056C63.922 13.8034 63.2735 14.1685 62.5744 14.1685H59.1868ZM59.1868 14.1685V0.91748" stroke="#7B4AE2" stroke-linecap="round"/>
<ellipse cx="74.6747" cy="23.9287" rx="1.32756" ry="1.77008" fill="#7B4AE2"/>
<circle cx="47.8282" cy="25.2562" r="4.86773" stroke="#7B4AE2"/>
<ellipse cx="72.462" cy="26.1412" rx="1.77008" ry="1.32756" fill="#7B4AE2"/>
<ellipse cx="76.8873" cy="26.1412" rx="1.77008" ry="1.32756" fill="#7B4AE2"/>
<ellipse cx="74.6747" cy="28.3537" rx="1.32756" ry="1.77008" fill="#7B4AE2"/>
<g filter="url(#filter0_d_135_903)">
<circle cx="36.2738" cy="32.8773" r="31.9598" fill="#7B4AE2" fill-opacity="0.2" shape-rendering="crispEdges"/>
</g>
<defs>
<filter id="filter0_d_135_903" x="0.313965" y="0.91748" width="71.9194" height="71.9197" filterUnits="userSpaceOnUse" color-interpolation-filters="sRGB">
<feFlood flood-opacity="0" result="BackgroundImageFix"/>
<feColorMatrix in="SourceAlpha" type="matrix" values="0 0 0 0 0 0 0 0 0 0 0 0 0 0 0 0 0 0 127 0" result="hardAlpha"/>
<feOffset dy="4"/>
<feGaussianBlur stdDeviation="2"/>
<feComposite in2="hardAlpha" operator="out"/>
<feColorMatrix type="matrix" values="0 0 0 0 0 0 0 0 0 0 0 0 0 0 0 0 0 0 0.25 0"/>
<feBlend mode="normal" in2="BackgroundImageFix" result="effect1_dropShadow_135_903"/>
<feBlend mode="normal" in="SourceGraphic" in2="effect1_dropShadow_135_903" result="shape"/>
</filter>
</defs>
</svg>
